<svg width="24" height="24" viewBox="0 0 24 24" fill="none" xmlns="http://www.w3.org/2000/svg">
<path fill-rule="evenodd" clip-rule="evenodd" d="M12 20.5C14.2284 20.5 16.2439 19.5889 17.6945 18.1189C16.3184 16.515 14.2777 15.5 12 15.5C9.72226 15.5 7.68159 16.515 6.30548 18.1189C7.75607 19.5889 9.77164 20.5 12 20.5ZM12 14.5C14.5294 14.5 16.8006 15.6052 18.3571 17.3574C19.3877 16.0106 20 14.3268 20 12.5C20 8.08172 16.4183 4.5 12 4.5C7.58172 4.5 4 8.08172 4 12.5C4 14.3268 4.61233 16.0106 5.64293 17.3574C7.19941 15.6052 9.47065 14.5 12 14.5ZM12 21.5C16.9706 21.5 21 17.4706 21 12.5C21 7.52944 16.9706 3.5 12 3.5C7.02944 3.5 3 7.52944 3 12.5C3 17.4706 7.02944 21.5 12 21.5ZM15 9.52612C15 7.86927 13.6569 6.52612 12 6.52612C10.3431 6.52612 9 7.86927 9 9.52612C9 11.183 10.3431 12.5261 12 12.5261C13.6569 12.5261 15 11.183 15 9.52612ZM16 9.52612C16 7.31698 14.2091 5.52612 12 5.52612C9.79086 5.52612 8 7.31698 8 9.52612C8 11.7353 9.79086 13.5261 12 13.5261C14.2091 13.5261 16 11.7353 16 9.52612Z" fill="#151515"/>
</svg>
