<svg width="24" height="24" viewBox="0 0 24 24" fill="none" xmlns="http://www.w3.org/2000/svg">
<path fill-rule="evenodd" clip-rule="evenodd" d="M6.83004 8.66961C6.83004 8.28003 7.04551 7.94078 7.36377 7.76452V6.82331V6.79546L7.36686 6.76778C7.37437 6.70059 7.38361 6.63393 7.39452 6.56784H5.00038C4.39183 6.56784 3.92436 7.10683 4.01043 7.70927L5.50684 18.1841C5.57722 18.6768 5.99914 19.0427 6.49679 19.0427H17.5025C18.0001 19.0427 18.4221 18.6768 18.4924 18.1841L19.9888 7.70926C20.0749 7.10683 19.6074 6.56784 18.9989 6.56784H16.6044C16.6153 6.63393 16.6245 6.70059 16.632 6.76778L16.6351 6.79546V6.82331V7.76421C16.9537 7.94038 17.1694 8.2798 17.1694 8.6696C17.1694 9.24062 16.7065 9.70352 16.1355 9.70352C15.5645 9.70352 15.1016 9.24062 15.1016 8.6696C15.1016 8.28009 15.317 7.94089 15.6351 7.7646V6.85233C15.6235 6.75642 15.6068 6.66151 15.5853 6.56784H8.41357C8.3921 6.66151 8.37543 6.75642 8.36377 6.85233V7.7643C8.68224 7.9405 8.89788 8.27987 8.89788 8.66961C8.89788 9.24063 8.43498 9.70353 7.86396 9.70353C7.29295 9.70353 6.83004 9.24063 6.83004 8.66961ZM7.7041 5.56784H5.00038C3.78328 5.56784 2.84835 6.64582 3.02048 7.85069L4.51689 18.3256C4.65764 19.3109 5.50148 20.0427 6.49679 20.0427H17.5025C18.4978 20.0427 19.3416 19.3109 19.4824 18.3256L20.9788 7.85069C21.1509 6.64582 20.216 5.56784 18.9989 5.56784H16.2948C15.5825 4.03781 13.9001 3 11.9994 3C10.0988 3 8.41643 4.03781 7.7041 5.56784ZM15.1449 5.56784C14.5165 4.64276 13.3632 4 11.9994 4C10.6357 4 9.48243 4.64276 8.85403 5.56784H15.1449Z" fill="#151515"/>
</svg>
