<svg width="24" height="24" viewBox="0 0 24 24" fill="none" xmlns="http://www.w3.org/2000/svg">
<path fill-rule="evenodd" clip-rule="evenodd" d="M7 4H17C18.6569 4 20 5.34315 20 7V17C20 18.6569 18.6569 20 17 20H13.8945V15.5262H14.6635C15.1681 15.5262 15.5937 15.1502 15.6559 14.6495L15.9207 12.5163C15.956 12.2318 15.8676 11.9458 15.6777 11.7309C15.4879 11.5161 15.215 11.3931 14.9283 11.3931H13.8945V11.031C13.8945 11.0176 13.8946 11.0048 13.8948 10.9926L13.9124 10.9925L13.9128 10.9925L15.0005 10.992C15.5526 10.9918 16 10.5441 16 9.99201V8.08409C16 7.5847 15.6316 7.16187 15.1369 7.0935C14.897 7.06035 14.2051 7 13.4152 7C12.4172 7 11.4783 7.32089 10.79 8.02751C10.1031 8.73268 9.77354 9.71097 9.77354 10.8198V11.3931H9C8.44772 11.3931 8 11.8408 8 12.3931V14.5262C8 15.0785 8.44772 15.5262 9 15.5262H9.77354V20H7C5.34315 20 4 18.6569 4 17V7C4 5.34315 5.34315 4 7 4ZM10.7735 20H11.7735H11.8945H12.8945V19V15.5262V14.5262H13.8945H14.6635L14.8042 13.3931L14.9283 12.3931H13.9207H13.8945H12.8945V11.3931V11.031C12.8945 10.4134 13.0596 9.99251 13.9124 9.99251L15 9.99201V9.99149V8.08409C14.8118 8.05808 14.1662 8 13.4152 8C11.8471 8 10.7735 8.99413 10.7735 10.8198V11.3931V12.3931H10H9.77354H9V13.3931V13.5262V14.5262H9.77354H10H10.7735V15.5262V19V20ZM10.7735 21H7C4.79086 21 3 19.2091 3 17V7C3 4.79086 4.79086 3 7 3H17C19.2091 3 21 4.79086 21 7V17C21 19.2091 19.2091 21 17 21H12.8945H10.7735Z" fill="white"/>
</svg>
