<svg width="24" height="24" viewBox="0 0 24 24" fill="none" xmlns="http://www.w3.org/2000/svg">
<rect x="3.5" y="3.5" width="17" height="17" rx="3.5" stroke="white"/>
<path d="M16.9721 9.32408C16.9444 9.2572 16.8975 9.20003 16.8373 9.15981C16.7771 9.11959 16.7063 9.09813 16.6339 9.09813H15.2418C15.0746 8.80705 14.8427 8.55835 14.564 8.37128C14.2852 8.1842 13.9672 8.06377 13.6345 8.01929C13.3017 7.97481 12.9632 8.00749 12.6452 8.11479C12.3271 8.2221 12.038 8.40114 11.8002 8.63808C11.5923 8.84085 11.427 9.08314 11.3142 9.35072C11.2013 9.61829 11.1431 9.90573 11.143 10.1961L11.1428 10.4762C9.28066 9.99099 7.75739 8.48928 7.74128 8.47317C7.69405 8.42593 7.63478 8.39252 7.56992 8.37656C7.50505 8.36059 7.43705 8.36268 7.37328 8.3826C7.30952 8.40252 7.25242 8.43951 7.20817 8.48956C7.16393 8.53961 7.13422 8.60082 7.12228 8.66654C6.72075 10.875 7.38415 12.3534 8.01134 13.2046C8.3269 13.6339 8.70886 14.0101 9.14283 14.3191C8.44517 15.1084 7.36571 15.523 7.35395 15.5274C7.30232 15.5468 7.25573 15.5776 7.21766 15.6175C7.1796 15.6573 7.15104 15.7053 7.13411 15.7578C7.11718 15.8103 7.11233 15.8659 7.11992 15.9205C7.1275 15.9751 7.14733 16.0273 7.17792 16.0732C7.21201 16.1245 7.34942 16.3044 7.68482 16.4721C8.10043 16.68 8.64815 16.7854 9.31273 16.7854C12.5404 16.7854 15.237 14.3008 15.5126 11.1033L16.8928 9.72304C16.944 9.67184 16.9788 9.60661 16.993 9.53559C17.0071 9.46458 16.9998 9.39097 16.9721 9.32408Z" stroke="white"/>
</svg>
